<?xml version="1.0" standalone="no"?>
<!DOCTYPE svg PUBLIC "-//W3C//DTD SVG 20010904//EN"
 "http://www.w3.org/TR/2001/REC-SVG-20010904/DTD/svg10.dtd">
<svg version="1.0" xmlns="http://www.w3.org/2000/svg"
 width="2000.000000pt" height="323.000000pt" viewBox="0 0 2000.000000 323.000000"
 preserveAspectRatio="xMidYMid meet">
<metadata>
Created by potrace 1.16, written by Peter Selinger 2001-2019
</metadata>
<g transform="translate(0.000000,323.000000) scale(0.100000,-0.100000)"
fill="#000000" stroke="none">
<path d="M3913 3211 c-18 -11 -42 -40 -55 -63 l-23 -43 0 -1490 0 -1490 28
-47 c51 -87 136 -102 203 -37 67 65 64 -20 64 1574 0 1595 4 1509 -64 1574
-44 43 -105 52 -153 22z"/>
<path d="M1540 3196 c0 -52 -31 -150 -79 -251 -96 -203 -239 -393 -475 -634
-377 -383 -718 -635 -926 -683 l-50 -12 72 -21 c219 -64 533 -299 904 -677
160 -162 283 -310 371 -445 99 -151 183 -353 183 -439 0 -43 10 -22 26 55 55
265 317 631 711 994 321 296 565 464 744 514 l62 17 -69 21 c-188 58 -417 218
-737 512 -258 238 -475 495 -594 706 -56 99 -123 270 -123 317 0 14 -5 32 -10
40 -8 12 -10 9 -10 -14z"/>
<path d="M10113 3209 c-58 -17 -63 -35 -63 -221 0 -185 6 -210 54 -230 43 -18
202 -17 241 2 48 24 55 49 55 220 0 174 -6 195 -60 222 -39 20 -170 24 -227 7z"/>
<path d="M5389 2911 l-29 -29 0 -301 0 -301 -214 0 c-259 0 -257 1 -264 -104
-5 -77 9 -119 44 -135 16 -7 99 -11 229 -11 l204 0 3 -437 c4 -421 5 -441 27
-513 57 -188 164 -297 342 -346 143 -39 369 -26 544 31 112 37 293 125 338
164 33 29 37 39 37 79 0 88 -64 172 -130 172 -14 0 -61 -21 -105 -46 -207
-118 -396 -169 -535 -144 -118 21 -169 62 -212 167 -22 57 -23 67 -26 466 l-3
407 390 0 c265 0 398 4 414 11 33 15 47 49 47 115 0 59 -19 108 -45 118 -9 3
-194 6 -411 6 l-394 0 0 278 c0 161 -4 293 -11 314 -14 51 -49 68 -139 68 -66
0 -74 -2 -101 -29z"/>
<path d="M8442 2459 c-81 -14 -197 -64 -288 -124 -95 -64 -245 -216 -300 -306
l-39 -63 -5 200 c-3 134 -9 206 -18 221 -21 38 -71 45 -309 41 l-223 -3 -27
-28 c-25 -25 -28 -34 -28 -97 0 -63 3 -72 28 -97 27 -28 29 -28 172 -31 l145
-4 0 -584 0 -584 -173 0 c-160 0 -175 -2 -195 -20 -28 -26 -35 -58 -30 -126 3
-39 11 -62 27 -77 l22 -22 649 0 649 0 23 23 c20 19 23 33 23 98 0 71 -2 77
-28 100 l-28 24 -330 0 -331 0 4 253 c4 229 6 258 27 322 97 296 337 529 591
575 79 14 145 7 226 -26 88 -35 126 -32 162 12 52 63 67 155 33 209 -37 63
-206 126 -326 124 -27 -1 -74 -5 -103 -10z"/>
<path d="M12204 2460 c-345 -49 -596 -312 -645 -676 -15 -115 -6 -306 20 -405
88 -340 348 -555 698 -576 167 -10 320 25 438 100 27 17 81 61 118 97 l69 65
-4 -235 -3 -235 -32 -67 c-56 -118 -150 -191 -290 -224 -53 -13 -103 -15 -228
-11 -170 6 -310 30 -470 81 -44 14 -94 26 -111 26 -57 0 -103 -66 -111 -161
-5 -51 -3 -60 19 -82 30 -30 170 -77 314 -106 295 -59 582 -54 777 14 157 54
279 159 347 298 71 145 70 133 70 1017 l0 788 105 4 c90 3 108 7 126 24 45 45
45 163 -1 208 -19 20 -33 21 -203 24 -216 4 -252 -3 -273 -53 -8 -20 -14 -68
-14 -117 l0 -83 -40 47 c-80 93 -234 190 -356 222 -72 20 -237 28 -320 16z
m287 -284 c194 -41 348 -193 394 -387 21 -91 19 -229 -5 -323 -61 -238 -259
-386 -517 -386 -155 0 -255 36 -353 127 -66 61 -119 154 -145 258 -20 78 -20
262 0 340 49 192 179 327 353 369 75 19 191 19 273 2z"/>
<path d="M14420 2460 c-339 -54 -575 -293 -636 -642 -12 -68 -15 -129 -11
-228 6 -164 28 -258 94 -390 38 -79 61 -109 132 -180 138 -138 292 -205 498
-217 228 -13 403 49 560 200 l63 60 0 -204 c0 -230 -10 -289 -63 -378 -54 -90
-140 -148 -264 -177 -53 -13 -103 -15 -228 -11 -173 5 -286 24 -457 77 -110
34 -144 37 -174 12 -49 -39 -80 -163 -54 -211 15 -29 89 -61 215 -94 157 -41
277 -58 460 -64 247 -8 403 23 545 107 128 75 218 188 268 334 l27 81 3 818 3
817 85 0 c92 0 146 16 163 48 6 12 11 50 11 86 0 54 -4 70 -24 93 l-24 28
-184 3 c-273 5 -288 -4 -288 -165 l0 -88 -43 47 c-94 103 -232 190 -359 224
-66 18 -245 26 -318 14z m340 -298 c221 -78 344 -244 357 -482 8 -129 -10
-223 -58 -318 -62 -124 -160 -209 -289 -253 -81 -27 -238 -37 -318 -19 -181
39 -316 175 -368 371 -22 84 -23 251 -1 342 47 191 176 327 353 372 81 20 250
14 324 -13z"/>
<path d="M16746 2460 c-375 -60 -624 -293 -707 -665 -9 -39 -14 -119 -13 -225
1 -143 5 -178 27 -263 90 -340 318 -539 675 -587 232 -32 569 17 806 116 105
44 146 85 146 145 0 83 -59 169 -115 169 -18 0 -70 -17 -116 -39 -307 -142
-648 -169 -858 -69 -85 40 -167 122 -209 208 -32 66 -62 178 -62 238 l0 32
679 0 c668 0 679 0 704 20 35 28 41 70 28 177 -51 391 -266 647 -611 728 -80
19 -295 27 -374 15z m322 -285 c171 -40 294 -161 346 -342 l15 -53 -546 0
-545 0 6 28 c4 15 20 54 35 87 113 242 381 351 689 280z"/>
<path d="M19515 2454 c-88 -19 -230 -87 -315 -152 -87 -66 -191 -178 -251
-270 l-49 -75 0 196 c0 108 -4 207 -10 222 -19 50 -57 56 -312 53 l-230 -3
-24 -28 c-20 -23 -24 -39 -24 -93 0 -118 26 -134 215 -134 l125 0 0 -585 0
-585 -169 0 c-162 0 -171 -1 -196 -22 -54 -47 -41 -195 20 -218 16 -6 263 -10
656 -10 l631 0 29 29 c26 26 29 36 29 91 0 64 -18 113 -45 124 -9 3 -165 6
-346 6 l-329 0 0 208 c1 230 12 319 55 427 48 120 105 204 205 306 146 148
275 211 435 213 78 1 98 -3 149 -27 71 -33 128 -35 157 -6 60 60 78 185 35
236 -49 59 -207 113 -321 112 -27 0 -81 -7 -120 -15z"/>
<path d="M9602 2415 c-38 -17 -52 -48 -52 -115 0 -124 16 -130 330 -130 l240
0 0 -585 0 -585 -309 0 -310 0 -28 -24 c-26 -23 -28 -29 -28 -100 0 -65 3 -79
23 -98 l23 -23 770 -3 770 -2 30 29 c26 26 29 36 29 91 0 64 -18 113 -45 124
-9 3 -158 6 -331 6 l-314 0 0 669 c0 473 -3 678 -11 701 -21 57 -38 60 -416
60 -269 -1 -345 -4 -371 -15z"/>
</g>
</svg>
